<svg width="13" height="13" viewBox="0 0 13 13" fill="none" xmlns="http://www.w3.org/2000/svg">
<g clip-path="url(#clip0)">
<path d="M6.50014 7.64971L11.6122 12.7618C11.9296 13.0794 12.4445 13.0794 12.7618 12.7618C13.0794 12.4442 13.0794 11.9298 12.7618 11.6122L7.64971 6.50014L12.7618 1.38778C13.0794 1.07017 13.0794 0.555815 12.7618 0.238206C12.4445 -0.0794022 11.9296 -0.0794022 11.6122 0.238206L6.50014 5.35057L1.38805 0.238206C1.07071 -0.0794027 0.555816 -0.0794027 0.238478 0.238206C0.0799449 0.39701 0.000542126 0.605136 0.000542117 0.812991C0.000542108 1.02085 0.0799447 1.22897 0.238749 1.38778L5.35084 6.50014L0.238748 11.6122C0.0799442 11.771 0.000541629 11.9792 0.00054162 12.187C0.000541611 12.3949 0.0799442 12.603 0.238748 12.7618C0.556086 13.0794 1.07098 13.0794 1.38832 12.7618L6.50014 7.64971Z" fill="#075A60"/>
</g>
<defs>
<clipPath id="clip0">
<rect width="13" height="13" fill="white" transform="translate(13) rotate(90)"/>
</clipPath>
</defs>
</svg>
