<svg width="11" height="11" viewBox="0 0 11 11" fill="none" xmlns="http://www.w3.org/2000/svg">
<path d="M5.50011 6.47283L9.82573 10.7984C10.0942 11.0672 10.5299 11.0672 10.7984 10.7984C11.0672 10.5297 11.0672 10.0945 10.7984 9.82573L6.47283 5.50011L10.7984 1.17427C11.0672 0.905526 11.0672 0.470305 10.7984 0.201559C10.5299 -0.0671864 10.0942 -0.0671865 9.82573 0.201559L5.50011 4.5274L1.1745 0.201559C0.905986 -0.0671869 0.470306 -0.0671869 0.201789 0.201559C0.0676457 0.335932 0.000458777 0.512038 0.000458769 0.687915C0.000458762 0.863792 0.0676455 1.0399 0.202018 1.17427L4.52763 5.50011L0.202018 9.82573C0.0676452 9.9601 0.000458356 10.1362 0.000458349 10.3121C0.000458341 10.488 0.0676451 10.6641 0.202018 10.7984C0.470534 11.0672 0.906214 11.0672 1.17473 10.7984L5.50011 6.47283Z" fill="#075A60"/>
</svg>
